<mxfile host="app.diagrams.net" agent="Mozilla/5.0 (Windows NT 10.0; Win64; x64; rv:138.0) Gecko/20100101 Firefox/138.0" version="27.0.5">
  <diagram name="Page-1" id="rh0Of0znffFhv-4lY8hP">
    <mxGraphModel dx="1123" dy="673" grid="1" gridSize="10" guides="1" tooltips="1" connect="1" arrows="1" fold="1" page="1" pageScale="1" pageWidth="3300" pageHeight="4681" math="0" shadow="0">
      <root>
        <mxCell id="0" />
        <mxCell id="1" parent="0" />
        <mxCell id="yxUly5FmEBHd0ZXqb9Pl-3" style="edgeStyle=orthogonalEdgeStyle;rounded=0;orthogonalLoop=1;jettySize=auto;html=1;exitX=0.5;exitY=1;exitDx=0;exitDy=0;entryX=0.5;entryY=0;entryDx=0;entryDy=0;" edge="1" parent="1" source="yxUly5FmEBHd0ZXqb9Pl-1" target="yxUly5FmEBHd0ZXqb9Pl-2">
          <mxGeometry relative="1" as="geometry" />
        </mxCell>
        <mxCell id="yxUly5FmEBHd0ZXqb9Pl-1" value="data&#xa;Observational Data" style="rectangle;fillColor=#fff2cc;strokeColor=#d6b656;" name="data" vertex="1" parent="1">
          <mxGeometry x="580" y="230" width="100" height="50" as="geometry" />
        </mxCell>
        <mxCell id="yxUly5FmEBHd0ZXqb9Pl-5" style="edgeStyle=orthogonalEdgeStyle;rounded=0;orthogonalLoop=1;jettySize=auto;html=1;exitX=0.5;exitY=1;exitDx=0;exitDy=0;entryX=0.5;entryY=0;entryDx=0;entryDy=0;" edge="1" parent="1" source="yxUly5FmEBHd0ZXqb9Pl-2" target="yxUly5FmEBHd0ZXqb9Pl-4">
          <mxGeometry relative="1" as="geometry" />
        </mxCell>
        <mxCell id="yxUly5FmEBHd0ZXqb9Pl-2" value="transform" style="rounded=1;whiteSpace=wrap;html=1;arcSize=50;fillColor=#f8cecc;strokeColor=#b85450;" name="transform" vertex="1" parent="1">
          <mxGeometry x="580" y="360" width="100" height="50" as="geometry" />
        </mxCell>
        <mxCell id="yxUly5FmEBHd0ZXqb9Pl-7" style="edgeStyle=orthogonalEdgeStyle;rounded=0;orthogonalLoop=1;jettySize=auto;html=1;exitX=0.5;exitY=1;exitDx=0;exitDy=0;entryX=1;entryY=0.5;entryDx=0;entryDy=0;" edge="1" parent="1" source="yxUly5FmEBHd0ZXqb9Pl-4" target="yxUly5FmEBHd0ZXqb9Pl-6">
          <mxGeometry relative="1" as="geometry" />
        </mxCell>
        <mxCell id="yxUly5FmEBHd0ZXqb9Pl-4" value="data&#xa;Discovery Data" style="rectangle;fillColor=#fff2cc;strokeColor=#d6b656;" name="data" vertex="1" parent="1">
          <mxGeometry x="580" y="490" width="100" height="50" as="geometry" />
        </mxCell>
        <mxCell id="yxUly5FmEBHd0ZXqb9Pl-9" style="edgeStyle=orthogonalEdgeStyle;rounded=0;orthogonalLoop=1;jettySize=auto;html=1;exitX=0;exitY=0.5;exitDx=0;exitDy=0;entryX=0.5;entryY=0;entryDx=0;entryDy=0;" edge="1" parent="1" source="yxUly5FmEBHd0ZXqb9Pl-6" target="yxUly5FmEBHd0ZXqb9Pl-8">
          <mxGeometry relative="1" as="geometry" />
        </mxCell>
        <mxCell id="yxUly5FmEBHd0ZXqb9Pl-6" value="transform" style="rounded=1;whiteSpace=wrap;html=1;arcSize=50;fillColor=#f8cecc;strokeColor=#b85450;" name="transform" vertex="1" parent="1">
          <mxGeometry x="450" y="590" width="100" height="50" as="geometry" />
        </mxCell>
        <mxCell id="yxUly5FmEBHd0ZXqb9Pl-11" style="edgeStyle=orthogonalEdgeStyle;rounded=0;orthogonalLoop=1;jettySize=auto;html=1;exitX=0.5;exitY=1;exitDx=0;exitDy=0;entryX=0;entryY=0.5;entryDx=0;entryDy=0;" edge="1" parent="1" source="yxUly5FmEBHd0ZXqb9Pl-8" target="yxUly5FmEBHd0ZXqb9Pl-10">
          <mxGeometry relative="1" as="geometry" />
        </mxCell>
        <mxCell id="yxUly5FmEBHd0ZXqb9Pl-8" value="data&#xa;Individual Pseudo&#xa;Outcomes" style="rectangle;fillColor=#fff2cc;strokeColor=#d6b656;" name="data" vertex="1" parent="1">
          <mxGeometry x="320" y="690" width="100" height="50" as="geometry" />
        </mxCell>
        <mxCell id="yxUly5FmEBHd0ZXqb9Pl-13" style="edgeStyle=orthogonalEdgeStyle;rounded=0;orthogonalLoop=1;jettySize=auto;html=1;exitX=1;exitY=0.5;exitDx=0;exitDy=0;entryX=0;entryY=0.5;entryDx=0;entryDy=0;" edge="1" parent="1" source="yxUly5FmEBHd0ZXqb9Pl-10" target="yxUly5FmEBHd0ZXqb9Pl-12">
          <mxGeometry relative="1" as="geometry" />
        </mxCell>
        <mxCell id="yxUly5FmEBHd0ZXqb9Pl-10" value="transform" style="rounded=1;whiteSpace=wrap;html=1;arcSize=50;fillColor=#f8cecc;strokeColor=#b85450;" name="transform" vertex="1" parent="1">
          <mxGeometry x="450" y="790" width="100" height="50" as="geometry" />
        </mxCell>
        <mxCell id="yxUly5FmEBHd0ZXqb9Pl-15" style="edgeStyle=orthogonalEdgeStyle;rounded=0;orthogonalLoop=1;jettySize=auto;html=1;exitX=1;exitY=0.5;exitDx=0;exitDy=0;entryX=0.5;entryY=1;entryDx=0;entryDy=0;" edge="1" parent="1" source="yxUly5FmEBHd0ZXqb9Pl-12" target="yxUly5FmEBHd0ZXqb9Pl-14">
          <mxGeometry relative="1" as="geometry" />
        </mxCell>
        <mxCell id="yxUly5FmEBHd0ZXqb9Pl-12" value="symbol&#xa;Potential Decision&#xa;Rules" style="rectangle;fillColor=#dae8fc;strokeColor=#6c8ebf;" name="symbol" vertex="1" parent="1">
          <mxGeometry x="630" y="790" width="100" height="50" as="geometry" />
        </mxCell>
        <mxCell id="yxUly5FmEBHd0ZXqb9Pl-17" style="edgeStyle=orthogonalEdgeStyle;rounded=0;orthogonalLoop=1;jettySize=auto;html=1;exitX=1;exitY=0.5;exitDx=0;exitDy=0;entryX=0.5;entryY=1;entryDx=0;entryDy=0;" edge="1" parent="1" source="yxUly5FmEBHd0ZXqb9Pl-14" target="yxUly5FmEBHd0ZXqb9Pl-16">
          <mxGeometry relative="1" as="geometry" />
        </mxCell>
        <mxCell id="yxUly5FmEBHd0ZXqb9Pl-14" value="infer:deduce" style="rounded=1;whiteSpace=wrap;html=1;arcSize=50;fillColor=#bac8d3;strokeColor=#23445d;" name="infer:deduce" vertex="1" parent="1">
          <mxGeometry x="760" y="690" width="100" height="50" as="geometry" />
        </mxCell>
        <mxCell id="yxUly5FmEBHd0ZXqb9Pl-22" style="edgeStyle=orthogonalEdgeStyle;rounded=0;orthogonalLoop=1;jettySize=auto;html=1;exitX=0.5;exitY=0;exitDx=0;exitDy=0;entryX=0.5;entryY=1;entryDx=0;entryDy=0;" edge="1" parent="1" source="yxUly5FmEBHd0ZXqb9Pl-16" target="yxUly5FmEBHd0ZXqb9Pl-21">
          <mxGeometry relative="1" as="geometry" />
        </mxCell>
        <mxCell id="yxUly5FmEBHd0ZXqb9Pl-16" value="symbol&#xa;Candidate Rules" style="rectangle;fillColor=#dae8fc;strokeColor=#6c8ebf;" name="symbol" vertex="1" parent="1">
          <mxGeometry x="890" y="590" width="100" height="50" as="geometry" />
        </mxCell>
        <mxCell id="yxUly5FmEBHd0ZXqb9Pl-23" style="edgeStyle=orthogonalEdgeStyle;rounded=0;orthogonalLoop=1;jettySize=auto;html=1;exitX=0.5;exitY=1;exitDx=0;exitDy=0;entryX=0;entryY=0.5;entryDx=0;entryDy=0;" edge="1" parent="1" source="yxUly5FmEBHd0ZXqb9Pl-18" target="yxUly5FmEBHd0ZXqb9Pl-21">
          <mxGeometry relative="1" as="geometry" />
        </mxCell>
        <mxCell id="yxUly5FmEBHd0ZXqb9Pl-18" value="data&#xa;Inference Data" style="rectangle;fillColor=#fff2cc;strokeColor=#d6b656;" name="data" vertex="1" parent="1">
          <mxGeometry x="760" y="360" width="100" height="50" as="geometry" />
        </mxCell>
        <mxCell id="yxUly5FmEBHd0ZXqb9Pl-20" value="&lt;div&gt;error&lt;/div&gt;&lt;div&gt;--&amp;gt;&lt;/div&gt;" style="text;html=1;align=center;verticalAlign=middle;whiteSpace=wrap;rounded=0;dashed=1;fillColor=#f5f5f5;fontColor=#333333;strokeColor=#666666;strokeWidth=2;" name="text" vertex="1" parent="1">
          <mxGeometry x="680" y="370" width="80" height="30" as="geometry" />
        </mxCell>
        <mxCell id="yxUly5FmEBHd0ZXqb9Pl-25" style="edgeStyle=orthogonalEdgeStyle;rounded=0;orthogonalLoop=1;jettySize=auto;html=1;exitX=1;exitY=0.5;exitDx=0;exitDy=0;entryX=0;entryY=0.5;entryDx=0;entryDy=0;" edge="1" parent="1" source="yxUly5FmEBHd0ZXqb9Pl-21" target="yxUly5FmEBHd0ZXqb9Pl-24">
          <mxGeometry relative="1" as="geometry" />
        </mxCell>
        <mxCell id="yxUly5FmEBHd0ZXqb9Pl-21" value="transform" style="rounded=1;whiteSpace=wrap;html=1;arcSize=50;fillColor=#f8cecc;strokeColor=#b85450;" name="transform" vertex="1" parent="1">
          <mxGeometry x="890" y="460" width="100" height="50" as="geometry" />
        </mxCell>
        <mxCell id="yxUly5FmEBHd0ZXqb9Pl-24" value="symbol&#xa;Re-estimated&#xa;Pseudo Outcomes" style="rectangle;fillColor=#dae8fc;strokeColor=#6c8ebf;" name="symbol" vertex="1" parent="1">
          <mxGeometry x="1070" y="460" width="100" height="50" as="geometry" />
        </mxCell>
        <mxCell id="yxUly5FmEBHd0ZXqb9Pl-32" style="edgeStyle=orthogonalEdgeStyle;rounded=0;orthogonalLoop=1;jettySize=auto;html=1;exitX=0.5;exitY=1;exitDx=0;exitDy=0;entryX=0.5;entryY=0;entryDx=0;entryDy=0;" edge="1" parent="1" source="yxUly5FmEBHd0ZXqb9Pl-26" target="yxUly5FmEBHd0ZXqb9Pl-30">
          <mxGeometry relative="1" as="geometry" />
        </mxCell>
        <mxCell id="yxUly5FmEBHd0ZXqb9Pl-26" value="generate:engineer" style="rounded=1;whiteSpace=wrap;html=1;arcSize=50;fillColor=#e1d5e7;strokeColor=#9673a6;" name="generate:engineer" vertex="1" parent="1">
          <mxGeometry x="1200" y="560" width="100" height="50" as="geometry" />
        </mxCell>
        <mxCell id="yxUly5FmEBHd0ZXqb9Pl-29" value="&lt;div&gt;error&lt;/div&gt;&lt;div&gt;--&lt;/div&gt;&lt;div&gt;&amp;nbsp; |&lt;/div&gt;&lt;div&gt;&amp;nbsp; v&lt;/div&gt;" style="text;html=1;align=center;verticalAlign=middle;whiteSpace=wrap;rounded=0;dashed=1;fillColor=#f5f5f5;fontColor=#333333;strokeColor=#666666;strokeWidth=2;" name="text" vertex="1" parent="1">
          <mxGeometry x="1170" y="460" width="80" height="100" as="geometry" />
        </mxCell>
        <mxCell id="yxUly5FmEBHd0ZXqb9Pl-35" style="edgeStyle=orthogonalEdgeStyle;rounded=0;orthogonalLoop=1;jettySize=auto;html=1;exitX=0.5;exitY=1;exitDx=0;exitDy=0;entryX=0.5;entryY=0;entryDx=0;entryDy=0;" edge="1" parent="1" source="yxUly5FmEBHd0ZXqb9Pl-30" target="yxUly5FmEBHd0ZXqb9Pl-34">
          <mxGeometry relative="1" as="geometry" />
        </mxCell>
        <mxCell id="yxUly5FmEBHd0ZXqb9Pl-30" value="model:hybrid&#xa;Treatment Model" style="shape=hexagon;perimeter=hexagonPerimeter2;fillColor=#b0e3e6;strokeColor=#0e8088;" name="model" vertex="1" parent="1">
          <mxGeometry x="1190" y="690" width="120" height="50" as="geometry" />
        </mxCell>
        <mxCell id="yxUly5FmEBHd0ZXqb9Pl-39" style="edgeStyle=orthogonalEdgeStyle;rounded=0;orthogonalLoop=1;jettySize=auto;html=1;exitX=0.5;exitY=1;exitDx=0;exitDy=0;entryX=0.5;entryY=0;entryDx=0;entryDy=0;" edge="1" parent="1" source="yxUly5FmEBHd0ZXqb9Pl-34" target="yxUly5FmEBHd0ZXqb9Pl-38">
          <mxGeometry relative="1" as="geometry" />
        </mxCell>
        <mxCell id="yxUly5FmEBHd0ZXqb9Pl-34" value="infer:deduce" style="rounded=1;whiteSpace=wrap;html=1;arcSize=50;fillColor=#bac8d3;strokeColor=#23445d;" name="infer:deduce" vertex="1" parent="1">
          <mxGeometry x="1200" y="820" width="100" height="50" as="geometry" />
        </mxCell>
        <mxCell id="yxUly5FmEBHd0ZXqb9Pl-37" style="edgeStyle=orthogonalEdgeStyle;rounded=0;orthogonalLoop=1;jettySize=auto;html=1;exitX=0;exitY=0.5;exitDx=0;exitDy=0;entryX=1;entryY=0.5;entryDx=0;entryDy=0;" edge="1" parent="1" source="yxUly5FmEBHd0ZXqb9Pl-36" target="yxUly5FmEBHd0ZXqb9Pl-34">
          <mxGeometry relative="1" as="geometry" />
        </mxCell>
        <mxCell id="yxUly5FmEBHd0ZXqb9Pl-36" value="data&#xa;Clinical Data" style="rectangle;fillColor=#fff2cc;strokeColor=#d6b656;" name="data" vertex="1" parent="1">
          <mxGeometry x="1380" y="820" width="100" height="50" as="geometry" />
        </mxCell>
        <mxCell id="yxUly5FmEBHd0ZXqb9Pl-38" value="symbol&#xa;Treatment Effects" style="rectangle;fillColor=#dae8fc;strokeColor=#6c8ebf;" name="symbol" vertex="1" parent="1">
          <mxGeometry x="1200" y="950" width="100" height="50" as="geometry" />
        </mxCell>
      </root>
    </mxGraphModel>
  </diagram>
</mxfile>
